<svg width="298" height="51" viewBox="0 0 298 61" fill="none" xmlns="http://www.w3.org/2000/svg">
<path d="M2.75311 49V12.6364H17.9165C20.639 12.6364 22.9176 13.0211 24.7524 13.7905C26.599 14.5599 27.9839 15.6371 28.9072 17.022C29.8424 18.407 30.3099 20.0109 30.3099 21.8338C30.3099 23.2188 30.0199 24.4557 29.4399 25.5447C28.8599 26.6219 28.0609 27.5156 27.0429 28.2259C26.0249 28.9361 24.8471 29.4332 23.5095 29.7173V30.0724C24.9773 30.1435 26.3327 30.54 27.5756 31.2621C28.8303 31.9841 29.8364 32.9903 30.594 34.2805C31.3516 35.5589 31.7304 37.0741 31.7304 38.826C31.7304 40.7791 31.2332 42.5251 30.2389 44.0639C29.2446 45.5909 27.8064 46.7983 25.9243 47.6861C24.0422 48.562 21.7576 49 19.0706 49H2.75311ZM11.5422 41.9155H16.9754C18.8812 41.9155 20.2839 41.5545 21.1835 40.8324C22.095 40.1103 22.5507 39.1042 22.5507 37.8139C22.5507 36.8788 22.3317 36.0739 21.8937 35.3991C21.4558 34.7126 20.8343 34.1858 20.0294 33.8189C19.2245 33.4401 18.2597 33.2507 17.1352 33.2507H11.5422V41.9155ZM11.5422 27.5866H16.4072C17.366 27.5866 18.2183 27.4268 18.964 27.1072C19.7098 26.7876 20.2898 26.326 20.7041 25.7223C21.1302 25.1186 21.3433 24.3906 21.3433 23.5384C21.3433 22.3191 20.9113 21.3603 20.0471 20.6619C19.183 19.9635 18.0171 19.6143 16.5493 19.6143H11.5422V27.5866ZM44.7453 12.6364V49H35.9562V12.6364H44.7453ZM50.2629 49V12.6364H59.0519V28.0128H59.5313L71.5519 12.6364H81.9035L69.0129 28.8651L82.1343 49H71.623L62.5676 34.7067L59.0519 39.1456V49H50.2629ZM85.3703 49V12.6364H110.725V19.7741H94.1594V27.2315H109.429V34.3871H94.1594V41.8622H110.725V49H85.3703ZM135.885 23.5384C135.767 22.2363 135.24 21.2242 134.305 20.5021C133.382 19.7682 132.062 19.4013 130.345 19.4013C129.209 19.4013 128.262 19.5492 127.505 19.8452C126.747 20.1411 126.179 20.5495 125.8 21.0703C125.421 21.5793 125.226 22.1652 125.214 22.8281C125.19 23.3726 125.297 23.852 125.534 24.2663C125.782 24.6806 126.137 25.0476 126.599 25.3672C127.072 25.675 127.641 25.9472 128.304 26.1839C128.966 26.4207 129.712 26.6278 130.541 26.8054L133.666 27.5156C135.465 27.9062 137.051 28.4271 138.424 29.0781C139.809 29.7292 140.969 30.5045 141.904 31.4041C142.851 32.3037 143.568 33.3395 144.053 34.5114C144.538 35.6832 144.787 36.9972 144.799 38.4531C144.787 40.7495 144.207 42.7204 143.059 44.3658C141.91 46.0111 140.259 47.2718 138.105 48.1477C135.962 49.0237 133.376 49.4616 130.345 49.4616C127.303 49.4616 124.652 49.0059 122.391 48.0945C120.13 47.183 118.372 45.7981 117.117 43.9396C115.863 42.0812 115.218 39.7315 115.182 36.8906H123.598C123.669 38.0625 123.983 39.0391 124.539 39.8203C125.096 40.6016 125.859 41.1934 126.83 41.5959C127.812 41.9983 128.949 42.1996 130.239 42.1996C131.423 42.1996 132.429 42.0398 133.257 41.7202C134.098 41.4006 134.743 40.9567 135.193 40.3885C135.643 39.8203 135.873 39.1693 135.885 38.4354C135.873 37.7488 135.66 37.1629 135.246 36.6776C134.832 36.1804 134.193 35.7543 133.328 35.3991C132.476 35.0322 131.387 34.6948 130.061 34.3871L126.262 33.4993C123.113 32.7772 120.633 31.6113 118.822 30.0014C117.011 28.3797 116.111 26.1899 116.123 23.4318C116.111 21.1828 116.715 19.2119 117.934 17.5192C119.153 15.8265 120.84 14.5066 122.995 13.5597C125.149 12.6127 127.605 12.1392 130.363 12.1392C133.18 12.1392 135.625 12.6186 137.696 13.5774C139.78 14.5244 141.395 15.8561 142.544 17.5724C143.692 19.2888 144.278 21.2775 144.301 23.5384H135.885ZM148.048 19.7741V12.6364H178.783V19.7741H167.757V49H159.092V19.7741H148.048ZM236.786 49V12.6364H251.808C254.53 12.6364 256.88 13.1276 258.857 14.1101C260.845 15.0807 262.378 16.4775 263.455 18.3004C264.533 20.1115 265.071 22.2599 265.071 24.7457C265.071 27.267 264.521 29.4096 263.42 31.1733C262.319 32.9252 260.756 34.2628 258.732 35.1861C256.708 36.0975 254.311 36.5533 251.541 36.5533H242.042V29.6286H249.908C251.234 29.6286 252.34 29.4569 253.228 29.1136C254.128 28.7585 254.808 28.2259 255.27 27.5156C255.732 26.7936 255.962 25.8703 255.962 24.7457C255.962 23.6212 255.732 22.692 255.27 21.9581C254.808 21.2124 254.128 20.656 253.228 20.2891C252.328 19.9103 251.222 19.7209 249.908 19.7209H245.575V49H236.786ZM257.259 32.3807L266.314 49H256.726L247.848 32.3807H257.259ZM269.892 49V12.6364H295.247V19.7741H278.681V27.2315H293.951V34.3871H278.681V41.8622H295.247V49H269.892Z" fill="white"/>
<path d="M207.5 40.7794C201.854 40.7794 197.221 36.1989 197.221 30.5C197.221 24.8543 201.801 20.2207 207.5 20.2207C213.146 20.2207 217.779 24.8011 217.779 30.5C217.779 36.1457 213.146 40.7794 207.5 40.7794ZM207.5 24.0022C203.932 24.0022 201.002 26.9315 201.002 30.5C201.002 34.0685 203.932 36.9978 207.5 36.9978C211.068 36.9978 213.998 34.0685 213.998 30.5C213.998 26.9315 211.068 24.0022 207.5 24.0022ZM207.5 55H207.234C205.37 55 203.772 54.787 203.665 54.787C202.813 54.6804 202.174 54.0413 202.014 53.1891L201.482 49.3543C200.31 48.9815 199.191 48.5022 198.126 47.9163L195.143 50.2065C194.451 50.7391 193.546 50.6859 192.853 50.2065C192.8 50.1533 191.522 49.1413 190.19 47.863L189.977 47.65C188.646 46.3185 187.687 45.0402 187.634 44.987C187.101 44.2946 187.101 43.3891 187.634 42.6967L189.977 39.6076C189.391 38.5424 188.965 37.3707 188.592 36.1989L184.864 35.6663C184.012 35.5598 183.373 34.8674 183.266 34.0152C183.213 33.962 183 32.3641 183 30.5V30.2337C183 28.3696 183.213 26.7717 183.213 26.6652C183.32 25.813 183.959 25.1739 184.811 25.0141L188.646 24.4815C189.018 23.3098 189.498 22.1913 190.084 21.1261L187.793 18.1435C187.261 17.4511 187.314 16.5457 187.793 15.8533C187.847 15.8 188.859 14.5217 190.137 13.1902L190.35 12.9772C191.682 11.6457 192.96 10.687 193.013 10.6337C193.705 10.1011 194.611 10.1011 195.303 10.6337L198.392 12.9772C199.458 12.3913 200.629 11.9652 201.801 11.5924L202.334 7.86413C202.44 7.01196 203.133 6.37283 203.985 6.2663C204.038 6.21304 205.636 6 207.5 6H207.766C209.63 6 211.228 6.21304 211.335 6.21304C212.187 6.31957 212.826 6.9587 212.986 7.81087L213.518 11.6457C214.69 12.0185 215.809 12.4978 216.874 13.0837L219.857 10.7935C220.549 10.2609 221.454 10.3141 222.147 10.7935C222.2 10.8467 223.478 11.8587 224.81 13.137L225.023 13.35C226.354 14.6815 227.313 15.9598 227.366 16.013C227.899 16.7054 227.899 17.6109 227.366 18.3033L225.076 21.3924C225.662 22.4576 226.088 23.6293 226.461 24.8011L230.189 25.3337C231.041 25.4402 231.68 26.1326 231.787 26.9848C231.787 27.038 232 28.6891 232 30.5533V30.8196C232 32.6837 231.787 34.2815 231.787 34.388C231.68 35.2402 231.041 35.8793 230.189 36.0391L226.354 36.5717C225.982 37.7435 225.502 38.862 224.916 39.9272L227.207 42.963C227.739 43.6554 227.686 44.5609 227.207 45.2533C227.153 45.3065 226.141 46.5848 224.863 47.9163L224.65 48.1293C223.318 49.4609 222.04 50.4196 221.987 50.4728C221.295 51.0054 220.389 51.0054 219.697 50.4728L216.608 48.0761C215.542 48.662 214.371 49.088 213.199 49.4609L212.666 53.1891C212.56 54.0413 211.867 54.6804 211.015 54.787C210.962 54.787 209.364 55 207.5 55ZM205.583 51.1652C206.062 51.2185 206.648 51.2185 207.234 51.2185H207.5C208.086 51.2185 208.672 51.2185 209.151 51.1652L209.63 47.65C209.737 46.8511 210.323 46.2652 211.068 46.0522C212.72 45.6793 214.317 45.0402 215.755 44.1348C216.182 43.8685 216.714 43.8152 217.193 43.9217C217.46 43.975 217.726 44.1348 217.939 44.2946L220.762 46.425C221.135 46.1054 221.561 45.7326 221.987 45.3065L222.2 45.0935C222.626 44.6674 222.999 44.2413 223.318 43.8685L221.188 41.0457C220.709 40.4065 220.709 39.5543 221.082 38.9152C221.987 37.5304 222.626 35.9859 222.999 34.388C223.159 33.5891 223.798 32.95 224.597 32.8435L228.165 32.3641C228.218 31.8848 228.218 31.2989 228.218 30.713V30.5C228.218 29.9141 228.218 29.3283 228.165 28.8489L224.65 28.3696C223.904 28.263 223.265 27.6772 223.052 26.9315C222.679 25.2804 222.04 23.7359 221.188 22.2978C221.082 22.1913 221.028 22.0315 220.975 21.8717C220.762 21.2859 220.868 20.5935 221.241 20.1141L223.425 17.238C223.105 16.8652 222.733 16.4391 222.307 16.013L222.093 15.8C221.667 15.3739 221.241 15.0011 220.868 14.6815L218.046 16.812C217.353 17.2913 216.448 17.2913 215.809 16.812C214.424 15.9598 212.879 15.3207 211.282 14.8946C210.536 14.7348 209.95 14.0957 209.843 13.2967L209.364 9.72826C208.885 9.675 208.299 9.675 207.713 9.675H207.5C206.914 9.675 206.328 9.675 205.849 9.72826L205.37 13.35C205.263 14.2022 204.624 14.8413 203.772 14.9478C202.174 15.3207 200.629 15.9598 199.245 16.812C198.818 17.0783 198.286 17.1315 197.807 17.025C197.54 16.9717 197.274 16.812 197.061 16.6522L194.291 14.5217C193.918 14.8413 193.492 15.2141 193.066 15.6402L192.853 15.8533C192.427 16.2793 192.054 16.7054 191.735 17.0783L193.865 19.9011C194.345 20.5402 194.345 21.3391 193.972 22.0315C193.918 22.0848 193.918 22.138 193.865 22.1913C193.013 23.5761 192.374 25.1207 192.001 26.7185C191.841 27.4641 191.202 28.05 190.403 28.1565L186.835 28.6359C186.782 29.1152 186.782 29.7011 186.782 30.287V30.5C186.782 31.0859 186.782 31.6717 186.835 32.1511L190.35 32.6304C191.202 32.737 191.841 33.3761 191.948 34.2283V34.2815C192.321 35.8793 192.96 37.3707 193.812 38.7554C194.078 39.2348 194.185 39.8207 193.972 40.3533C193.918 40.5663 193.759 40.7793 193.599 40.9924L191.522 43.762C191.841 44.1348 192.214 44.5609 192.64 44.987L192.853 45.2C193.279 45.6261 193.705 45.9989 194.078 46.3185L196.901 44.188C197.593 43.6554 198.605 43.7087 199.245 44.2413C200.629 45.0935 202.121 45.6793 203.665 46.1054C204.411 46.2652 204.997 46.9044 205.103 47.7033L205.583 51.1652Z" fill="white"/>
</svg>
